<svg xmlns="http://www.w3.org/2000/svg" aria-hidden="true" style="position:absolute;width:0;height:0;overflow:hidden"><defs><symbol id="icon-chat-icon" viewBox="0 0 32 32"><path fill="currentColor" d="m18.309 29.026.723-1.221-1.721-1.019-.723 1.221 1.721 1.019zm-5.341-1.221.723 1.221 1.721-1.019-.723-1.221-1.721 1.019zm3.62.203c-.257.434-.92.434-1.177 0l-1.721 1.019c1.031 1.743 3.587 1.743 4.619 0l-1.721-1.019zM14 3.667h4v-2h-4v2zM28.333 14v1.333h2V14h-2zM3.667 15.333V14h-2v1.333h2zm-2 0c0 1.539-.001 2.744.066 3.716.067.981.205 1.797.518 2.552l1.848-.765c-.195-.47-.31-1.044-.37-1.922-.061-.888-.061-2.013-.061-3.58h-2zm8.736 8.989c-1.674-.029-2.551-.135-3.239-.42l-.765 1.848c1.073.445 2.296.543 3.97.572l.034-2zM2.25 21.601a7.669 7.669 0 0 0 4.149 4.149l.765-1.848a5.667 5.667 0 0 1-3.067-3.067l-1.848.765zm26.083-6.268c0 1.567-.001 2.692-.061 3.58-.06.879-.175 1.452-.37 1.922l1.848.765c.313-.755.451-1.571.518-2.552.066-.972.066-2.176.066-3.716h-2zm-6.702 10.989c1.674-.029 2.896-.128 3.969-.572l-.765-1.848c-.687.285-1.565.391-3.239.42l.034 2zm6.271-5.487a5.663 5.663 0 0 1-3.067 3.067l.765 1.848a7.666 7.666 0 0 0 4.149-4.149l-1.848-.765zM18 3.667c2.202 0 3.783.001 5.016.118 1.218.116 1.994.338 2.612.717l1.045-1.705c-.985-.604-2.103-.873-3.467-1.002-1.35-.128-3.042-.127-5.205-.127v2zM30.333 14c0-2.163.001-3.855-.127-5.205-.13-1.365-.399-2.482-1.002-3.467l-1.705 1.045c.379.618.601 1.393.717 2.612.117 1.233.118 2.814.118 5.016h2zm-4.705-9.498a5.663 5.663 0 0 1 1.871 1.871l1.705-1.045a7.656 7.656 0 0 0-2.531-2.531l-1.045 1.705zM14 1.667c-2.163 0-3.855-.001-5.205.127-1.365.13-2.482.399-3.467 1.002l1.045 1.705c.618-.379 1.393-.601 2.612-.717 1.233-.117 2.814-.118 5.016-.118v-2zM3.667 14c0-2.202.001-3.783.118-5.016.116-1.218.338-1.994.717-2.612L2.797 5.327c-.604.985-.873 2.103-1.002 3.467-.128 1.35-.127 3.042-.127 5.205h2zM5.328 2.796a7.656 7.656 0 0 0-2.531 2.531l1.705 1.045a5.663 5.663 0 0 1 1.871-1.871L5.328 2.796zm9.361 23.99c-.271-.457-.508-.861-.739-1.178-.243-.334-.522-.635-.91-.86l-1.006 1.729c.063.037.149.104.299.309.162.222.345.529.635 1.019l1.721-1.019zm-4.32-.464c.585.01.956.018 1.239.049.264.029.367.072.426.107l1.006-1.729c-.39-.227-.796-.32-1.212-.366-.397-.044-.876-.051-1.425-.061l-.034 2zm8.663 1.483c.29-.49.473-.797.634-1.019.149-.205.236-.272.299-.309l-1.005-1.729c-.387.225-.666.526-.91.86-.231.317-.469.721-.739 1.178l1.721 1.019zm2.565-3.483c-.548.009-1.028.017-1.425.061-.415.046-.821.139-1.212.366l1.005 1.729c.06-.035.162-.078.427-.107.283-.031.653-.039 1.239-.049l-.034-2z"/><path stroke="currentColor" stroke-linecap="round" stroke-linejoin="round" stroke-width="2.667" d="M10.667 14.667h.012m5.309 0H16m5.321 0h.012"/></symbol></defs></svg>