<svg width="544" height="689" viewBox="0 0 544 689" fill="none" xmlns="http://www.w3.org/2000/svg">
<rect x="0.165039" y="0.307739" width="543.613" height="688.576" fill="#F9F9FF"/>
<path d="M272.519 424.415C245.975 424.415 219.431 424.415 192.886 424.415C191.59 424.415 190.276 424.415 188.974 424.281C182.329 423.66 179.657 419.183 182.491 413.13C184.95 407.905 187.633 402.813 190.237 397.643C202.533 373.301 214.829 348.962 227.125 324.628C227.505 323.884 227.902 323.141 228.343 322.431C231.44 317.468 236.47 316.769 240.433 321.051C243.227 324.046 245.591 327.411 248.084 330.658C260.753 347.213 273.421 363.775 286.09 380.345C291.623 387.555 298.592 387.946 305.093 381.463C308.317 378.244 311.47 374.94 314.734 371.749C320.619 365.992 327.298 366.339 332.105 373.051C341.751 386.521 351.158 400.169 360.609 413.773C361.347 414.84 361.913 416.017 362.286 417.261C363.202 420.385 361.905 422.9 358.736 423.733C356.749 424.209 354.71 424.428 352.667 424.387C325.966 424.432 299.25 424.441 272.519 424.415Z" fill="#D4D2E3"/>
<path d="M332.049 291.032C332.042 296.227 330.492 301.304 327.597 305.618C324.701 309.932 320.59 313.289 315.784 315.264C310.978 317.239 305.695 317.742 300.602 316.71C295.51 315.678 290.839 313.157 287.181 309.467C283.524 305.777 281.044 301.084 280.056 295.983C279.069 290.882 279.619 285.603 281.635 280.814C283.652 276.026 287.045 271.944 291.384 269.087C295.723 266.229 300.814 264.724 306.009 264.763C312.928 264.851 319.534 267.654 324.405 272.568C329.276 277.482 332.021 284.113 332.049 291.032Z" fill="#D4D2E3"/>
</svg>
