<svg xmlns="http://www.w3.org/2000/svg" aria-hidden="true" style="position:absolute;width:0;height:0;overflow:hidden"><defs><symbol id="icon-Earth" viewBox="0 0 32 32"><path fill="currentColor" d="M32 16a16.008 16.008 0 0 0-9.877-14.782A15.994 15.994 0 0 0 4.687 4.687a16.006 16.006 0 0 0-3.469 17.436A15.997 15.997 0 0 0 16 32h.167A15.853 15.853 0 0 0 32 16.167V16zm-2.667 0c0 1.186-.161 2.367-.479 3.511a.672.672 0 0 1-.355.425.673.673 0 0 1-.553.01 4.648 4.648 0 0 1-2.023-1.691l-2.957-4.437a3.335 3.335 0 0 0-2.774-1.484h-.577a3.667 3.667 0 0 1 0-7.334h3.696c.138 0 .273.043.385.123a13.326 13.326 0 0 1 5.636 10.878zM2.905 13.54a.665.665 0 0 1 .655-.534h5.783a4.626 4.626 0 0 1 3.3 1.367l1.491 1.493a4.67 4.67 0 0 1 .187 6.4l-1.812 2.039a3.333 3.333 0 0 0-.841 2.216v1.103a.672.672 0 0 1-.301.558.67.67 0 0 1-.632.054 13.331 13.331 0 0 1-8.067-12.235 12.94 12.94 0 0 1 .239-2.46z"/></symbol><symbol id="icon-Email" viewBox="0 0 32 32"><path fill="currentColor" d="M31.656 13.138a.666.666 0 0 0-.677.018l-11.8 8.208a6.021 6.021 0 0 1-6.358 0l-11.8-8.208A.668.668 0 0 0 0 13.721v11.304a4.003 4.003 0 0 0 4 4h24a4.001 4.001 0 0 0 4-4V13.721a.664.664 0 0 0-.344-.584z"/><path fill="currentColor" d="M32 7.693a4 4 0 0 0-4-4H4a4.003 4.003 0 0 0-4 4 .199.199 0 0 0 .094.168l14.84 10.112a2 2 0 0 0 2.118 0L31.9 7.861a.199.199 0 0 0 .102-.168z"/></symbol><symbol id="icon-Phone" viewBox="0 0 32 32"><path fill="currentColor" d="m30.845 22.944-3.412-3.413a3.91 3.91 0 0 0-5.536 0l-.696.696a75.582 75.582 0 0 1-9.464-9.477l.696-.696a3.918 3.918 0 0 0 0-5.534L9.014 1.111a4.011 4.011 0 0 0-5.542 0L1.608 2.984a5.54 5.54 0 0 0-.696 6.949 75.397 75.397 0 0 0 21.111 21.116 5.59 5.59 0 0 0 6.957-.696l1.871-1.873a3.905 3.905 0 0 0 0-5.534l-.007-.001z"/></symbol></defs></svg>